<?xml version="1.0" standalone="no"?>
<!DOCTYPE svg PUBLIC "-//W3C//DTD SVG 20010904//EN"
 "http://www.w3.org/TR/2001/REC-SVG-20010904/DTD/svg10.dtd">
<svg version="1.0" xmlns="http://www.w3.org/2000/svg"
 width="931.000000pt" height="1280.000000pt" viewBox="0 0 931.000000 1280.000000"
 preserveAspectRatio="xMidYMid meet">
<metadata>
Created by potrace 1.15, written by Peter Selinger 2001-2017
</metadata>
<g transform="translate(0.000000,1280.000000) scale(0.100000,-0.100000)"
fill="#000000" stroke="none">
<path d="M1080 12782 c-141 -40 -255 -120 -374 -263 -147 -174 -258 -365 -323
-554 l-37 -110 -1 -220 c0 -121 2 -305 5 -410 5 -226 -4 -278 -86 -516 -30
-85 -63 -196 -73 -245 -94 -437 50 -1355 368 -2354 l40 -125 -47 -40 c-297
-249 -493 -537 -527 -778 l-7 -47 177 105 c97 58 179 105 181 105 2 0 -12 -25
-31 -55 -155 -242 -274 -538 -321 -797 -18 -101 -31 -348 -18 -347 5 0 67 42
139 94 71 51 131 92 133 90 2 -1 -6 -38 -17 -81 -82 -324 -131 -664 -131 -917
l0 -158 123 83 c67 47 128 88 135 92 11 7 12 -26 7 -185 -7 -204 -30 -543 -41
-598 -7 -31 -6 -33 17 -26 13 4 94 41 181 81 l158 73 0 -30 c0 -41 -25 -205
-50 -320 -22 -107 -81 -286 -111 -337 -10 -18 -19 -35 -19 -37 0 -2 33 -6 73
-10 50 -5 99 -2 155 8 128 25 214 75 288 168 21 27 39 47 41 46 1 -2 -6 -25
-16 -53 -33 -86 -44 -192 -38 -361 3 -87 11 -186 17 -221 12 -61 12 -62 46
-62 108 0 223 49 293 126 28 31 51 54 51 52 0 -2 -7 -24 -15 -51 -46 -151 -39
-310 18 -426 30 -61 35 -67 77 -79 25 -7 86 -16 137 -19 76 -5 97 -3 118 11
29 19 29 21 10 -64 -25 -116 -17 -250 25 -411 20 -77 74 -220 102 -273 l15
-29 79 111 c43 61 81 109 85 107 4 -3 10 -26 14 -51 3 -26 22 -108 40 -183 53
-216 105 -346 166 -415 l30 -35 119 135 c65 74 122 136 127 136 13 1 91 -160
120 -247 36 -111 38 -257 5 -330 -13 -27 -30 -57 -39 -67 -9 -10 -12 -18 -7
-18 5 0 90 34 189 75 99 41 185 75 192 75 13 0 69 -163 107 -310 36 -141 49
-249 44 -364 -5 -116 -31 -187 -87 -244 -18 -17 -31 -32 -29 -32 2 0 109 29
238 65 l235 65 56 -60 c141 -150 184 -339 116 -507 -14 -35 -24 -63 -22 -63 2
0 31 16 64 35 98 58 202 95 265 95 68 0 73 -8 52 -81 -43 -145 -11 -168 255
-189 260 -20 693 -8 814 23 32 8 55 21 69 40 19 25 19 31 7 85 -8 31 -14 71
-15 87 l-1 30 70 -1 c76 -1 136 -22 253 -88 35 -20 65 -36 67 -36 2 0 -8 28
-22 63 -37 90 -42 203 -15 294 22 72 92 182 153 240 l34 32 235 -64 c129 -36
236 -65 238 -65 2 0 -11 15 -29 32 -18 18 -44 58 -58 88 -25 52 -26 64 -26
210 1 134 4 169 27 262 41 159 107 358 121 358 7 0 93 -34 192 -75 99 -41 183
-75 187 -75 4 0 -4 17 -18 37 -64 95 -69 229 -14 396 32 94 100 234 114 230 4
-1 61 -63 126 -137 l119 -135 32 37 c65 74 139 280 190 528 12 60 25 112 29
117 3 4 41 -44 85 -105 l79 -113 31 70 c103 226 143 455 112 630 -8 44 -13 81
-12 83 2 2 13 -2 26 -8 27 -15 169 -9 242 10 40 11 52 19 71 54 60 103 75 278
37 427 -10 41 -18 75 -16 77 1 1 12 -12 25 -30 30 -45 99 -96 159 -119 56 -21
191 -37 191 -23 0 5 7 63 15 129 30 239 15 411 -50 570 -5 11 16 -7 46 -39
108 -118 215 -166 369 -166 53 0 99 2 102 5 3 3 -5 34 -17 68 -13 34 -32 109
-44 167 -22 112 -71 420 -71 450 0 16 28 6 175 -62 96 -45 177 -79 180 -77 2
3 0 32 -5 65 -12 79 -28 324 -36 563 -6 164 -5 193 7 186 8 -5 69 -46 137 -93
l122 -83 0 153 c0 235 -32 481 -105 808 -20 85 -38 166 -42 179 l-6 25 29 -21
c16 -11 77 -55 137 -97 59 -42 110 -76 114 -76 14 0 -8 266 -32 387 -47 233
-154 500 -288 721 -31 50 -55 92 -53 92 2 0 84 -47 181 -105 l177 -105 -7 47
c-16 108 -72 247 -147 364 -78 121 -234 291 -380 414 l-47 40 45 145 c203 655
323 1190 375 1670 16 151 16 518 0 610 -7 41 -44 167 -81 280 -94 282 -96 291
-90 565 9 432 5 571 -19 660 -61 228 -293 593 -472 741 -105 88 -252 144 -375
144 -119 0 -290 -58 -436 -148 -169 -103 -278 -208 -1009 -967 -371 -386 -471
-492 -546 -579 -25 -28 -48 -46 -55 -43 -7 4 -78 63 -158 132 l-145 126 -47
-5 c-51 -5 -113 -33 -140 -63 -28 -30 -58 -105 -58 -145 0 -21 -3 -38 -7 -38
-5 0 -28 51 -52 113 -24 61 -45 114 -47 116 -1 1 -47 -34 -100 -79 l-98 -82
-58 116 c-64 128 -73 134 -136 96 -46 -28 -89 -125 -110 -244 l-17 -94 -104
214 c-58 118 -108 211 -112 207 -3 -4 -56 -102 -117 -217 l-110 -209 -7 49
c-22 156 -64 261 -118 294 -62 38 -71 32 -135 -96 l-58 -116 -97 82 c-54 46
-99 81 -101 79 -2 -2 -23 -55 -47 -116 -24 -62 -47 -113 -50 -113 -3 0 -9 23
-12 52 -13 106 -90 183 -194 194 l-48 5 -153 -131 c-84 -73 -156 -130 -160
-128 -4 2 -50 50 -102 108 -52 58 -187 199 -300 315 -113 116 -293 303 -400
415 -532 559 -665 682 -860 788 -179 97 -372 133 -510 94z m6417 -9664 c-3 -8
-6 -5 -6 6 -1 11 2 17 5 13 3 -3 4 -12 1 -19z"/>
</g>
</svg>
