<svg width="245" height="245" viewBox="0 0 245 245" fill="none" xmlns="http://www.w3.org/2000/svg">
<g filter="url(#filter0_d)">
<circle cx="122.5" cy="118.5" r="62.5" fill="white"/>
</g>
<path d="M138.825 96.5383C138.846 96.5732 138.87 96.6067 138.896 96.6383C139.007 96.7583 138.896 96.9682 138.725 96.8683C138.182 96.4641 137.706 95.9783 137.314 95.4284C137.269 95.3971 137.229 95.3601 137.193 95.3185C136.841 94.8685 136.518 94.3886 136.186 93.9186L136.045 93.7487C135.023 92.5058 133.635 91.6109 132.076 91.189C132.024 91.1738 131.978 91.1423 131.945 91.099C131.912 91.0557 131.895 91.0031 131.895 90.949C131.895 90.8949 131.912 90.8423 131.945 90.799C131.978 90.7558 132.024 90.7242 132.076 90.709C132.075 90.6688 132.087 90.6293 132.11 90.5966C132.134 90.564 132.168 90.5402 132.207 90.5291C133.287 89.9097 134.227 89.0757 134.967 88.0794C135.642 87.3695 136.529 86.4496 137.596 86.5796C138.664 86.7096 139.228 88.5193 139.329 89.4692C139.276 90.5182 139.076 91.5548 138.735 92.5488C138.528 93.8789 138.576 95.2358 138.876 96.5483L138.825 96.5383ZM133.587 105.407C133.592 105.43 133.592 105.454 133.587 105.477C133.591 105.504 133.591 105.531 133.587 105.557C133.394 105.828 133.179 106.082 132.942 106.317C132.913 106.329 132.881 106.329 132.852 106.317C132.703 106.682 132.438 106.987 132.096 107.187C131.895 107.375 131.668 107.533 131.421 107.657C131.018 107.857 130.192 107.657 129.92 108.007C129.648 108.357 129.628 108.477 129.296 108.527C129.26 108.536 129.223 108.537 129.187 108.53C129.151 108.522 129.117 108.507 129.088 108.485C129.059 108.463 129.035 108.434 129.019 108.402C129.003 108.369 128.994 108.333 128.994 108.297C128.994 107.797 129.044 107.207 129.115 106.637C129.038 106.15 129.087 105.651 129.256 105.187C130.082 103.537 131.925 104.397 133.144 105.027L133.235 105.087C133.3 105.122 133.372 105.143 133.446 105.147C133.479 105.142 133.512 105.146 133.542 105.16C133.572 105.174 133.596 105.197 133.613 105.225C133.629 105.253 133.637 105.286 133.634 105.318C133.631 105.351 133.618 105.382 133.597 105.407H133.587ZM130.807 125.705C130.585 126.054 130.354 126.394 130.132 126.704C129.732 127.663 129.082 128.498 128.248 129.124C127.559 129.523 126.769 129.717 125.972 129.684C125.94 129.737 125.899 129.785 125.851 129.824C125.666 129.942 125.474 130.049 125.277 130.144L125.125 130.214H125.055L124.833 130.304C124.337 130.476 123.817 130.571 123.292 130.584H122.96C122.438 130.571 121.921 130.477 121.429 130.304L121.197 130.244H121.126L120.975 130.174C120.784 130.074 120.592 129.974 120.401 129.854C120.353 129.817 120.315 129.769 120.29 129.714C119.493 129.747 118.703 129.553 118.014 129.154C117.188 128.523 116.548 127.684 116.16 126.724C115.949 126.394 115.707 126.054 115.495 125.725C114.78 125.005 113.934 124.005 114.397 123.005C114.73 122.255 115.314 122.925 115.546 123.355C115.992 124.376 116.382 125.421 116.714 126.484L116.765 126.604C117.141 127.391 117.64 128.113 118.245 128.744C118.547 128.951 118.891 129.088 119.253 129.144C119.637 129.194 120.024 129.224 120.411 129.234C120.434 129.205 120.466 129.184 120.502 129.174H120.663C121.345 128.902 122.074 128.766 122.809 128.774C122.803 128.698 122.803 128.621 122.809 128.544C122.803 128.461 122.803 128.377 122.809 128.294C121.992 128.082 121.234 127.689 120.592 127.144C120.064 126.812 119.612 126.373 119.265 125.857C118.917 125.34 118.684 124.757 118.578 124.145C118.471 123.623 118.48 123.085 118.604 122.567C118.727 122.049 118.962 121.564 119.293 121.145C120.073 120.499 121.057 120.145 122.073 120.145C124.44 119.945 127.261 120.145 127.644 123.015C127.77 123.627 127.735 124.261 127.541 124.855C127.346 125.449 127 125.983 126.536 126.404C126.142 126.828 125.703 127.207 125.226 127.534C124.74 127.907 124.156 128.132 123.544 128.184H123.393C123.398 128.281 123.398 128.378 123.393 128.474C123.398 128.534 123.398 128.594 123.393 128.654C124.191 128.611 124.989 128.745 125.73 129.044H125.891C125.928 129.052 125.96 129.074 125.982 129.104C126.372 129.094 126.763 129.064 127.15 129.014C127.512 128.957 127.856 128.821 128.158 128.614C128.765 127.986 129.265 127.263 129.638 126.474C129.642 126.435 129.642 126.394 129.638 126.354C129.97 125.289 130.363 124.244 130.817 123.225C131.039 122.795 131.633 122.125 131.955 122.875C132.419 123.875 131.582 124.875 130.827 125.625L130.807 125.705ZM127.039 130.514C125.387 132.734 121.489 132.204 119.404 131.004C119.373 130.98 119.351 130.946 119.341 130.909C119.331 130.871 119.334 130.831 119.349 130.795C119.363 130.759 119.389 130.729 119.423 130.709C119.457 130.689 119.496 130.68 119.535 130.684C121.942 131.564 124.733 132.024 126.939 130.404C126.999 130.404 127.09 130.454 127.039 130.514ZM113.632 106.357C113.603 106.369 113.57 106.369 113.541 106.357C113.308 106.122 113.096 105.868 112.906 105.597C112.883 105.575 112.865 105.548 112.856 105.517V105.447C112.835 105.422 112.822 105.391 112.819 105.358C112.817 105.326 112.824 105.293 112.84 105.265C112.857 105.237 112.882 105.214 112.911 105.2C112.941 105.186 112.975 105.182 113.007 105.187C113.081 105.183 113.153 105.162 113.219 105.127L113.309 105.067C114.528 104.437 116.331 103.577 117.208 105.227C117.403 105.698 117.475 106.211 117.419 106.717C117.5 107.287 117.52 107.877 117.54 108.377C117.54 108.547 117.389 108.627 117.238 108.607C116.916 108.557 116.795 108.337 116.613 108.087C116.432 107.837 115.525 107.937 115.123 107.737C114.873 107.618 114.645 107.459 114.448 107.267C114.103 107.068 113.834 106.763 113.682 106.397L113.632 106.357ZM109.955 93.7887C109.955 93.8486 109.864 93.9086 109.814 93.9586C109.471 94.4286 109.149 94.9085 108.807 95.3584C108.768 95.4003 108.724 95.4373 108.676 95.4684C108.281 96.0222 107.797 96.5084 107.245 96.9082C107.104 97.0082 106.973 96.7983 107.074 96.6783L107.154 96.5783C107.444 95.2645 107.492 93.9095 107.296 92.5788C106.954 91.5848 106.754 90.5482 106.701 89.4992C106.701 88.4993 107.154 86.7496 108.373 86.6096C109.441 86.4796 110.338 87.3995 111.003 88.1094C111.745 89.1079 112.688 89.9422 113.773 90.5591C113.809 90.5739 113.841 90.5987 113.864 90.6305C113.887 90.6623 113.901 90.6999 113.904 90.739C113.956 90.7542 114.002 90.7858 114.035 90.829C114.067 90.8723 114.085 90.9249 114.085 90.979C114.085 91.0331 114.067 91.0857 114.035 91.129C114.002 91.1723 113.956 91.2038 113.904 91.219C112.341 91.6403 110.95 92.5351 109.925 93.7787L109.955 93.7887ZM120.532 109.077C120.377 108.256 120.306 107.422 120.32 106.587C120.321 106.542 120.339 106.499 120.371 106.467C120.44 106.055 120.558 105.652 120.723 105.267C121.02 104.276 120.952 103.213 120.532 102.268L120.351 102.008C119.716 100.795 119.371 99.4541 119.343 98.0881C119.273 96.0884 119.394 93.2287 121.015 91.8189C121.015 91.8189 121.096 91.8189 121.066 91.8689C119.69 94.352 119.315 97.2611 120.018 100.008C120.143 100.451 120.315 100.881 120.532 101.288C120.544 101.294 120.555 101.302 120.563 101.313C120.572 101.323 120.578 101.335 120.582 101.348C120.643 101.458 120.693 101.578 120.754 101.698C121.198 102.427 121.537 103.215 121.761 104.037C121.87 104.756 121.728 105.49 121.358 106.117C121.298 106.597 121.177 107.067 121.106 107.547C121.069 108.098 120.992 108.646 120.874 109.187C120.946 109.824 120.912 110.47 120.774 111.096C120.388 112.486 119.844 113.828 119.152 115.096C118.396 116.606 116.644 119.725 117.983 121.295C118.001 121.308 118.012 121.328 118.015 121.349C118.018 121.371 118.012 121.393 117.999 121.41C117.985 121.427 117.965 121.439 117.944 121.441C117.922 121.444 117.9 121.438 117.883 121.425C116.321 120.685 117.701 117.426 118.134 116.366C118.749 114.866 119.646 113.476 120.149 111.926C120.473 111.012 120.61 110.044 120.552 109.077H120.532ZM124.299 104.007C124.524 103.185 124.863 102.397 125.307 101.668C125.367 101.548 125.418 101.428 125.478 101.318C125.482 101.305 125.488 101.293 125.497 101.283C125.506 101.272 125.516 101.264 125.528 101.258C125.739 100.858 125.911 100.44 126.042 100.008C126.745 97.2513 126.36 94.3323 124.964 91.8489C124.964 91.8489 124.964 91.7789 125.025 91.7989C126.647 93.2087 126.767 96.0984 126.697 98.0681C126.669 99.4341 126.325 100.775 125.69 101.988L125.508 102.308C125.088 103.253 125.02 104.316 125.317 105.307C125.482 105.692 125.6 106.095 125.669 106.507C125.698 106.541 125.716 106.583 125.72 106.627C125.734 107.462 125.664 108.296 125.508 109.117C125.446 110.084 125.583 111.054 125.911 111.966C126.395 113.516 127.291 114.906 127.926 116.406C128.359 117.406 129.739 120.725 128.178 121.465C128.16 121.478 128.138 121.484 128.117 121.481C128.095 121.479 128.075 121.467 128.062 121.45C128.048 121.433 128.043 121.411 128.045 121.389C128.048 121.368 128.06 121.348 128.077 121.335C129.417 119.765 127.654 116.646 126.908 115.136C126.217 113.868 125.673 112.526 125.287 111.136C125.162 110.491 125.141 109.829 125.226 109.177C125.112 108.636 125.038 108.088 125.005 107.537C124.934 107.057 124.813 106.537 124.753 106.107C124.383 105.48 124.241 104.746 124.35 104.027L124.299 104.007ZM149.201 111.716C149.156 111.21 149.012 110.718 148.778 110.267C148.345 109.267 147.77 108.267 147.357 107.197C146.186 104.54 144.78 101.99 143.157 99.5779C143.17 99.5287 143.17 99.4771 143.157 99.4279C143.971 97.4975 144.576 95.4864 144.96 93.4287C145.336 91.3729 145.531 89.2887 145.544 87.1995C145.471 85.394 145.265 83.5962 144.93 81.8202C144.852 80.3687 144.453 78.9521 143.761 77.6707C143.435 77.122 142.959 76.6754 142.389 76.3819C141.819 76.0884 141.178 75.9599 140.538 76.0109C139.047 76.2609 137.657 77.5107 136.508 78.3806C133.285 80.7503 131.2 84.0699 128.913 87.2095H128.853C128.194 86.8724 127.482 86.6524 126.747 86.5596C125.57 86.3096 124.374 86.1591 123.171 86.1096C120.824 86.0296 118.134 85.8797 116.12 87.2095C113.833 84.0699 111.748 80.7603 108.565 78.4206C107.336 77.5407 105.946 76.2909 104.455 76.0109C103.813 75.9603 103.171 76.0889 102.599 76.3823C102.028 76.6756 101.55 77.122 101.221 77.6707C100.532 78.9463 100.13 80.3552 100.043 81.8002C99.6972 83.5747 99.4918 85.3733 99.4282 87.1795C99.4314 89.2692 99.627 91.3543 100.012 93.4087C100.387 95.4686 100.992 97.4808 101.816 99.4079C101.799 99.4565 101.799 99.5093 101.816 99.5579C100.189 101.968 98.7828 104.518 97.615 107.177C97.1717 108.177 96.6076 109.177 96.1946 110.247C95.9605 110.698 95.8169 111.19 95.7715 111.696C95.4895 112.816 95.3283 113.946 95.006 115.006C94.993 115.065 95.0013 115.127 95.0293 115.181C95.0573 115.234 95.1033 115.277 95.1594 115.3C95.2154 115.324 95.2781 115.327 95.3365 115.31C95.3949 115.293 95.4455 115.256 95.4794 115.206C95.894 114.602 96.427 114.087 97.0466 113.692C97.6662 113.296 98.3597 113.029 99.0857 112.906C97.3134 114.743 96.2443 117.138 96.0637 119.675C96.0637 119.945 96.3961 119.975 96.527 119.795C97.0401 119.09 97.6905 118.494 98.4397 118.042C99.1888 117.59 100.022 117.292 100.889 117.166C99.0756 120.265 96.527 123.085 96.517 126.864C96.4983 126.931 96.5069 127.002 96.5409 127.062C96.5749 127.122 96.6315 127.166 96.6983 127.184C96.7651 127.203 96.8366 127.194 96.897 127.161C96.9575 127.127 97.0019 127.071 97.0206 127.004C98.1237 125.352 99.7138 124.077 101.574 123.355C100.71 124.653 100.146 126.124 99.9218 127.664C99.4695 129.725 99.2967 131.837 99.408 133.943C99.4072 133.997 99.4244 134.049 99.4569 134.092C99.4894 134.135 99.5354 134.165 99.5875 134.179C99.6396 134.193 99.6949 134.189 99.7445 134.168C99.7941 134.147 99.8352 134.11 99.8613 134.063C100.939 132.674 102.752 132.304 104.435 132.184C104.034 134.129 104.199 136.147 104.908 138.003C105.88 139.879 107.298 141.492 109.038 142.702C112.211 145.202 116.09 147.292 117.993 151.021C117.993 151.021 118.235 151.321 118.235 151.331C120.613 157.001 120.381 156.701 123.524 161C124.712 157.64 125.206 153.821 127.06 150.891C128.943 147.232 132.811 145.162 135.954 142.692C137.694 141.488 139.109 139.878 140.074 138.003C140.815 136.138 140.997 134.099 140.598 132.134C142.28 132.254 144.104 132.624 145.182 134.013C145.21 134.056 145.25 134.088 145.298 134.106C145.346 134.124 145.398 134.126 145.447 134.113C145.496 134.1 145.54 134.071 145.572 134.032C145.604 133.992 145.622 133.944 145.625 133.893C145.745 131.787 145.575 129.675 145.121 127.614C144.897 126.074 144.333 124.603 143.469 123.305C145.333 124.04 146.921 125.333 148.012 127.004C148.041 127.049 148.083 127.083 148.133 127.102C148.182 127.121 148.236 127.125 148.288 127.111C148.339 127.098 148.385 127.069 148.419 127.028C148.453 126.987 148.472 126.937 148.476 126.884C148.476 123.105 145.927 120.285 144.114 117.186C144.98 117.313 145.811 117.611 146.558 118.062C147.306 118.514 147.954 119.11 148.466 119.815C148.607 119.995 148.959 119.965 148.939 119.695C148.757 117.158 147.689 114.764 145.917 112.926C146.645 113.054 147.339 113.328 147.957 113.73C148.575 114.132 149.104 114.655 149.513 115.266C149.684 115.486 150.077 115.366 149.987 115.066C149.684 113.966 149.513 112.836 149.221 111.736" fill="#FBBA00"/>
<defs>
<filter id="filter0_d" x="0" y="0" width="245" height="245" filterUnits="userSpaceOnUse" color-interpolation-filters="sRGB">
<feFlood flood-opacity="0" result="BackgroundImageFix"/>
<feColorMatrix in="SourceAlpha" type="matrix" values="0 0 0 0 0 0 0 0 0 0 0 0 0 0 0 0 0 0 127 0"/>
<feMorphology radius="10" operator="dilate" in="SourceAlpha" result="effect1_dropShadow"/>
<feOffset dy="4"/>
<feGaussianBlur stdDeviation="25"/>
<feColorMatrix type="matrix" values="0 0 0 0 0 0 0 0 0 0 0 0 0 0 0 0 0 0 0.05 0"/>
<feBlend mode="normal" in2="BackgroundImageFix" result="effect1_dropShadow"/>
<feBlend mode="normal" in="SourceGraphic" in2="effect1_dropShadow" result="shape"/>
</filter>
</defs>
</svg>
